<svg viewBox="0 0 33 33" width="100%" height="100%" fill="#FFFFFF" xmlns="http://www.w3.org/2000/svg"><rect fill="#FFFFFF" width="100%" height="100%"></rect><path d="M0 0v1h7v-1zM9 0v1h1v-1zM15 0v1h1v-1zM18 0v1h1v-1zM20 0v1h1v-1zM23 0v1h2v-1zM26 0v1h7v-1zM0 1v1h1v-1zM6 1v1h1v-1zM11 1v1h2v-1zM15 1v1h2v-1zM18 1v1h2v-1zM26 1v1h1v-1zM32 1v1h1v-1zM0 2v1h1v-1zM2 2v1h3v-1zM6 2v1h1v-1zM8 2v1h4v-1zM14 2v1h1v-1zM17 2v1h3v-1zM21 2v1h1v-1zM23 2v1h2v-1zM26 2v1h1v-1zM28 2v1h3v-1zM32 2v1h1v-1zM0 3v1h1v-1zM2 3v1h3v-1zM6 3v1h1v-1zM10 3v1h1v-1zM12 3v1h6v-1zM21 3v1h3v-1zM26 3v1h1v-1zM28 3v1h3v-1zM32 3v1h1v-1zM0 4v1h1v-1zM2 4v1h3v-1zM6 4v1h1v-1zM8 4v1h3v-1zM13 4v1h2v-1zM16 4v1h2v-1zM19 4v1h1v-1zM21 4v1h2v-1zM26 4v1h1v-1zM28 4v1h3v-1zM32 4v1h1v-1zM0 5v1h1v-1zM6 5v1h1v-1zM8 5v1h1v-1zM11 5v1h1v-1zM13 5v1h5v-1zM20 5v1h5v-1zM26 5v1h1v-1zM32 5v1h1v-1zM0 6v1h7v-1zM8 6v1h1v-1zM10 6v1h1v-1zM12 6v1h1v-1zM14 6v1h1v-1zM16 6v1h1v-1zM18 6v1h1v-1zM20 6v1h1v-1zM22 6v1h1v-1zM24 6v1h1v-1zM26 6v1h7v-1zM9 7v1h2v-1zM12 7v1h2v-1zM15 7v1h1v-1zM17 7v1h6v-1zM24 7v1h1v-1zM1 8v1h1v-1zM4 8v1h1v-1zM6 8v1h1v-1zM8 8v1h2v-1zM12 8v1h1v-1zM14 8v1h5v-1zM21 8v1h5v-1zM27 8v1h2v-1zM30 8v1h1v-1zM0 9v1h2v-1zM3 9v1h1v-1zM5 9v1h1v-1zM7 9v1h1v-1zM11 9v1h1v-1zM13 9v1h3v-1zM17 9v1h1v-1zM21 9v1h3v-1zM25 9v1h1v-1zM29 9v1h3v-1zM0 10v1h2v-1zM3 10v1h1v-1zM6 10v1h1v-1zM9 10v1h1v-1zM11 10v1h5v-1zM18 10v1h1v-1zM20 10v1h1v-1zM23 10v1h1v-1zM25 10v1h1v-1zM29 10v1h1v-1zM31 10v1h1v-1zM3 11v1h2v-1zM8 11v1h6v-1zM19 11v1h2v-1zM22 11v1h1v-1zM24 11v1h1v-1zM31 11v1h1v-1zM0 12v1h1v-1zM2 12v1h2v-1zM6 12v1h1v-1zM8 12v1h1v-1zM12 12v1h1v-1zM14 12v1h1v-1zM16 12v1h1v-1zM22 12v1h1v-1zM24 12v1h1v-1zM26 12v1h1v-1zM28 12v1h2v-1zM31 12v1h2v-1zM0 13v1h2v-1zM3 13v1h1v-1zM5 13v1h1v-1zM11 13v1h1v-1zM14 13v1h1v-1zM16 13v1h1v-1zM18 13v1h3v-1zM24 13v1h2v-1zM27 13v1h1v-1zM30 13v1h1v-1zM0 14v1h1v-1zM4 14v1h4v-1zM11 14v1h1v-1zM14 14v1h2v-1zM17 14v1h1v-1zM20 14v1h2v-1zM23 14v1h1v-1zM25 14v1h2v-1zM31 14v1h1v-1zM2 15v1h1v-1zM4 15v1h1v-1zM8 15v1h1v-1zM10 15v1h1v-1zM12 15v1h1v-1zM14 15v1h2v-1zM18 15v1h1v-1zM21 15v1h1v-1zM23 15v1h7v-1zM4 16v1h5v-1zM10 16v1h3v-1zM14 16v1h2v-1zM17 16v1h1v-1zM19 16v1h4v-1zM26 16v1h1v-1zM28 16v1h2v-1zM31 16v1h1v-1zM0 17v1h1v-1zM2 17v1h4v-1zM7 17v1h1v-1zM10 17v1h3v-1zM17 17v1h1v-1zM20 17v1h1v-1zM23 17v1h1v-1zM25 17v1h1v-1zM29 17v1h2v-1zM0 18v1h1v-1zM5 18v1h2v-1zM9 18v1h1v-1zM11 18v1h2v-1zM15 18v1h2v-1zM18 18v1h1v-1zM21 18v1h5v-1zM27 18v1h1v-1zM29 18v1h1v-1zM0 19v1h2v-1zM4 19v1h2v-1zM8 19v1h1v-1zM10 19v1h1v-1zM13 19v1h1v-1zM17 19v1h5v-1zM23 19v1h1v-1zM27 19v1h1v-1zM31 19v1h1v-1zM0 20v1h4v-1zM6 20v1h1v-1zM10 20v1h1v-1zM14 20v1h4v-1zM20 20v1h1v-1zM23 20v1h1v-1zM25 20v1h2v-1zM28 20v1h2v-1zM31 20v1h2v-1zM0 21v1h4v-1zM9 21v1h1v-1zM11 21v1h3v-1zM15 21v1h2v-1zM18 21v1h2v-1zM22 21v1h3v-1zM27 21v1h1v-1zM29 21v1h3v-1zM6 22v1h1v-1zM11 22v1h1v-1zM13 22v1h3v-1zM19 22v1h1v-1zM22 22v1h4v-1zM27 22v1h5v-1zM2 23v1h1v-1zM4 23v1h1v-1zM7 23v1h3v-1zM12 23v1h2v-1zM16 23v1h1v-1zM19 23v1h3v-1zM27 23v1h1v-1zM29 23v1h1v-1zM31 23v1h2v-1zM0 24v1h9v-1zM10 24v1h2v-1zM13 24v1h2v-1zM18 24v1h1v-1zM20 24v1h2v-1zM24 24v1h6v-1zM31 24v1h2v-1zM8 25v1h3v-1zM15 25v1h4v-1zM21 25v1h1v-1zM24 25v1h1v-1zM28 25v1h1v-1zM30 25v1h1v-1zM0 26v1h7v-1zM9 26v1h3v-1zM13 26v1h6v-1zM20 26v1h1v-1zM24 26v1h1v-1zM26 26v1h1v-1zM28 26v1h2v-1zM0 27v1h1v-1zM6 27v1h1v-1zM9 27v1h1v-1zM12 27v1h1v-1zM14 27v1h1v-1zM17 27v1h3v-1zM22 27v1h1v-1zM24 27v1h1v-1zM28 27v1h1v-1zM32 27v1h1v-1zM0 28v1h1v-1zM2 28v1h3v-1zM6 28v1h1v-1zM8 28v1h2v-1zM11 28v1h2v-1zM15 28v1h1v-1zM18 28v1h2v-1zM22 28v1h1v-1zM24 28v1h6v-1zM31 28v1h2v-1zM0 29v1h1v-1zM2 29v1h3v-1zM6 29v1h1v-1zM9 29v1h4v-1zM16 29v1h6v-1zM26 29v1h6v-1zM0 30v1h1v-1zM2 30v1h3v-1zM6 30v1h1v-1zM9 30v1h1v-1zM11 30v1h1v-1zM14 30v1h1v-1zM20 30v1h1v-1zM23 30v1h1v-1zM25 30v1h4v-1zM0 31v1h1v-1zM6 31v1h1v-1zM8 31v1h1v-1zM10 31v1h3v-1zM17 31v1h1v-1zM21 31v1h5v-1zM29 31v1h1v-1zM0 32v1h7v-1zM10 32v1h1v-1zM13 32v1h1v-1zM16 32v1h2v-1zM19 32v1h6v-1zM26 32v1h1v-1zM29 32v1h1v-1zM32 32v1h1v-1z" fill="#000000"></path></svg>